<?xml version="1.0" standalone="no"?>
<!DOCTYPE svg PUBLIC "-//W3C//DTD SVG 20010904//EN"
 "http://www.w3.org/TR/2001/REC-SVG-20010904/DTD/svg10.dtd">
<svg version="1.0" xmlns="http://www.w3.org/2000/svg"
 width="474.000000pt" height="470.000000pt" viewBox="0 0 474.000000 470.000000"
 preserveAspectRatio="xMidYMid meet">
<metadata>
Created by potrace 1.16, written by Peter Selinger 2001-2019
</metadata>
<g transform="translate(0.000000,470.000000) scale(0.100000,-0.100000)"
fill="#000000" stroke="none">
<path d="M0 2350 l0 -2350 2370 0 2370 0 0 2350 0 2350 -2370 0 -2370 0 0
-2350z m2305 1032 c45 -8 42 -12 -35 -37 -246 -78 -489 -314 -586 -567 -43
-113 -55 -176 -61 -331 -6 -158 4 -252 39 -367 78 -254 284 -487 529 -597 67
-31 92 -59 63 -70 -34 -13 -270 5 -353 26 -334 87 -594 361 -683 718 -31 125
-31 358 1 487 43 176 120 321 241 449 138 148 298 240 490 283 60 13 292 17
355 6z m1640 -539 c55 -29 109 -85 136 -140 32 -66 45 -203 31 -324 -33 -278
-157 -395 -382 -359 -88 14 -113 26 -158 73 -44 46 -37 81 22 108 43 19 106
25 106 10 0 -19 71 -43 108 -36 69 13 133 113 132 209 l-1 31 -20 -28 c-33
-44 -76 -61 -154 -61 -59 0 -78 4 -117 27 -96 56 -145 155 -135 273 8 107 66
181 174 225 66 26 200 22 258 -8z m-615 -403 l0 -421 -87 3 -88 3 -2 295 c-2
162 -3 296 -3 297 0 1 -27 -9 -60 -23 -34 -14 -65 -22 -70 -19 -6 4 -10 35
-10 71 l0 65 153 74 c83 41 155 75 160 75 4 0 7 -189 7 -420z m-456 -16 c3 -9
6 -40 6 -70 l0 -54 -225 0 -225 0 0 70 0 70 219 0 c190 0 220 -2 225 -16z"/>
<path d="M3763 2695 c-34 -15 -73 -67 -73 -98 0 -37 32 -85 67 -102 92 -44
195 55 149 144 -29 55 -89 79 -143 56z"/>
</g>
</svg>
